<?xml version="1.0" encoding="UTF-8"?>
<svg id="Layer_1" data-name="Layer 1" xmlns="http://www.w3.org/2000/svg" viewBox="0 0 201 45.59">
  <defs>
    <style>
      .cls-1 {
        fill: #fff;
      }
    </style>
  </defs>
  <path class="cls-1" d="M108.74,13.54c3.87,0,5.41,1.63,5.41,4.51v.86c0,2.88-1.56,4.51-5.41,4.51h-3.17v4.86h-3.52v-14.74h6.69ZM105.57,20.51h2.95c1.41,0,2.09-.44,2.09-1.69v-.66c0-1.23-.68-1.69-2.09-1.69h-2.95v4.05Z"/>
  <path class="cls-1" d="M119.98,13.54v5.77h5.5v-5.77h3.52v14.74h-3.52v-6.05h-5.5v6.05h-3.52v-14.74h3.52Z"/>
  <path class="cls-1" d="M138.38,13.32c3.9,0,6.58,2.05,6.58,5.96v3.32c0,3.9-2.68,5.9-6.58,5.9h-.4c-3.9,0-6.62-2-6.62-5.9v-3.32c0-3.92,2.71-5.96,6.62-5.96h.4ZM134.9,19.39v3.01c0,1.98,1.08,3.04,3.08,3.04h.35c1.98,0,3.08-1.06,3.08-3.04v-3.01c0-1.94-1.1-3.01-3.08-3.01h-.35c-2,0-3.08,1.08-3.08,3.01Z"/>
  <path class="cls-1" d="M158.14,13.54v2.91h-7.31v2.93h6.32v2.79h-6.32v3.21h7.42v2.9h-10.94v-14.74h10.83Z"/>
  <path class="cls-1" d="M165.27,13.54l5.04,9.86h.46v-9.86h3.17v14.74h-4.69l-5.02-9.86h-.46v9.86h-3.19v-14.74h4.69Z"/>
  <path class="cls-1" d="M185.32,13.54v2.93h-2.75v8.89h2.75v2.93h-9.04v-2.93h2.77v-8.89h-2.77v-2.93h9.04Z"/>
  <path class="cls-1" d="M190.67,13.54l2.86,4.91h.79l2.77-4.91h3.61l-4.12,7.35,4.38,7.39h-3.94l-2.99-5.04h-.84l-2.84,5.04h-3.61l4.16-7.42-4.2-7.33h3.96Z"/>
  <path class="cls-1" d="M104.79,30.91c1.51,0,2.48.49,2.48,1.54v.22h-.72v-.22c0-.69-.72-.96-1.76-.96h-.21c-1.07,0-1.76.24-1.76.7v.09c0,.49.55.58,2.17.72,1.76.14,2.38.53,2.38,1.29v.1c0,.81-.9,1.29-2.54,1.29h-.21c-1.7,0-2.61-.5-2.61-1.54v-.28h.73v.28c0,.72.68.96,1.88.96h.21c1.13,0,1.81-.22,1.81-.69v-.1c0-.46-.51-.64-2.11-.76-1.62-.13-2.43-.4-2.43-1.22v-.09c0-.83.97-1.32,2.49-1.32h.21Z"/>
  <path class="cls-1" d="M120.61,30.97v.6h-4.13v1.41h3.77v.57h-3.77v1.46h4.17v.61h-4.93v-4.66h4.89Z"/>
  <path class="cls-1" d="M132.68,30.97c.96,0,1.6.46,1.6,1.31v.21c0,.69-.44,1.11-1.1,1.24l1.35,1.9h-.88l-1.32-1.86h-2.49v1.86h-.76v-4.66h3.61ZM129.84,33.18h2.64c.61,0,1.02-.17,1.02-.73v-.15c0-.56-.41-.75-1.02-.75h-2.64v1.63Z"/>
  <path class="cls-1" d="M143.05,30.97l2.18,3.97h.33l2.15-3.97h.76l-2.52,4.66h-1.14l-2.56-4.66h.79Z"/>
  <path class="cls-1" d="M160.04,30.97v.63h-1.34v3.41h1.34v.63h-3.45v-.63h1.34v-3.41h-1.34v-.63h3.45Z"/>
  <path class="cls-1" d="M171.24,30.91c1.67,0,2.81.65,2.81,1.89v.03h-.79v-.03c0-.75-.72-1.22-2.03-1.22h-.24c-1.29,0-2.04.49-2.04,1.54v.31c0,1.08.75,1.58,2.04,1.58h.24c1.31,0,2.06-.51,2.06-1.21v-.04h.78v.04c0,1.17-1.16,1.88-2.84,1.88h-.24c-1.64,0-2.83-.7-2.83-2.24v-.31c0-1.54,1.19-2.21,2.83-2.21h.24Z"/>
  <path class="cls-1" d="M187.37,30.97v.6h-4.13v1.41h3.77v.57h-3.77v1.46h4.17v.61h-4.93v-4.66h4.89Z"/>
  <path class="cls-1" d="M198.42,30.91c1.51,0,2.48.49,2.48,1.54v.22h-.72v-.22c0-.69-.72-.96-1.76-.96h-.21c-1.07,0-1.76.24-1.76.7v.09c0,.49.55.58,2.17.72,1.76.14,2.38.53,2.38,1.29v.1c0,.81-.9,1.29-2.54,1.29h-.21c-1.7,0-2.61-.5-2.61-1.54v-.28h.73v.28c0,.72.68.96,1.88.96h.21c1.13,0,1.81-.22,1.81-.69v-.1c0-.46-.51-.64-2.11-.76-1.62-.13-2.43-.4-2.43-1.22v-.09c0-.83.97-1.32,2.49-1.32h.21Z"/>
  <path class="cls-1" d="M8.49,26.73c5.92-.94,13.04-3.32,19.06-6.84,8.56-5,16.09-10.54,21.13-9.81,4.89.48,5.39.48,16.92,8.29,8.27,4.69,15.82,7.53,22.72,8.7-.41-1.93-1.71-3.39-3.45-4.63,4.1-.04,8.04.47,11.81,1.52-1.39-3.07-4.28-5.4-8.15-7.25,1.93-.39,4.23-.57,6.77-.62-3.15-2.77-7.53-4.22-12.36-5.18,1.02-.6,2.92-.78,5.11-.83-4.02-3.42-9.02-3.7-14.36-2.9,1.63-1.01,3.86-1.75,6.7-2.21-3.27-1.91-6.89-1.85-10.77-.41.93-1.09,2.45-1.94,4.21-2.69-2.49-.76-5-.55-7.53.41.05-.87.73-1.38,1.73-1.73-1.53-.61-3.02-.68-4.49,0-2.8-.94-4.92-.41-6.49,1.31-2.84,0-4.32,1.52-5.18,3.18L48.55.07l-3.52,4.97c-1.3-2.38-2.81-3.67-4.7-2.97-1.73-2.32-4.02-2.45-6.56-1.59-1.65-.7-3.23-.6-4.76,0,.94.62,1.68,1.23,1.8,1.8-2.35-1.2-4.89-1.46-7.6-.76,1.89,1.1,3.62,2.16,4.14,2.9-3.3-1.63-6.97-1.3-10.84.07,2.71.84,5.35,1.68,7.67,2.56-6.64-1.42-11.24-.07-15.05,2.35,2.06.21,3.72.59,4.9,1.17-5.17.49-8.79,2.6-12.15,4.97,2.69.22,5.7.38,6.35.97-3.03,1.11-5.69,3.73-8.22,6.91,5.49-1.88,10.14-2.84,11.95-1.31l-3.45,4.63Z"/>
  <polygon class="cls-1" points="48.39 13.16 51.79 19.05 48.39 25.17 44.89 19.16 48.39 13.16"/>
  <path class="cls-1" d="M40.82,45.59c-5.14-2.77-8.63-8.2-8.63-14.45,0-7.55,5.1-13.91,12.05-15.81l-2.23,3.84.04.06,1.46,2.52.79,1.35c-4.26,1.71-7.26,5.87-7.26,10.74,0,5.16,3.38,9.53,8.05,11.02-4.28-1.11-7.75-4.22-9.36-8.27.52,3.68,2.42,6.89,5.1,9.02Z"/>
  <path class="cls-1" d="M64.99,31.14c0,6.25-3.49,11.68-8.63,14.45,2.69-2.13,4.58-5.34,5.1-9.02-1.62,4.05-5.09,7.16-9.36,8.27,4.67-1.49,8.05-5.86,8.05-11.02,0-4.87-3-9.03-7.26-10.73l.76-1.36,1.41-2.55.09-.16-2.12-3.67c6.9,1.94,11.96,8.27,11.96,15.79Z"/>
</svg>